<svg width="800" height="800" viewBox="0 0 800 800" fill="none" xmlns="http://www.w3.org/2000/svg">
<path d="M376 383L397 376C654 355 713 358 726 359C697 370 511 390 376 383ZM477 167H481C496 172 501 203 493 242C477 319 434 356 393 371L343 375C406 221 452 167 477 167ZM341 368V367L338 365C336 365 335 366 335 368V372C297 300 347 177 382 138C388 131 394 127 397 127L400 128C402 129 423 151 341 368ZM331 386H333L332 387L331 386ZM308 674L307 673C292 660 286 534 335 400C335 614 316 671 308 674ZM129 474C92 463 68 443 71 425C76 402 124 382 240 382C268.028 381.931 296.048 382.932 324 385L329 392C280 488 182 489 129 474ZM274 332V327L275 326C280 326 296 335 329 377H323C295 370 277 346 274 332ZM398 664C395 668 392 669 389 668C374 664 346 603 341 409C416 523 417 637 398 664ZM734 357C733 354 730 350 638 354C582 357 507 362 413 370C425 363 436 354 446 344C471 318 490 281 498 243C507 200 501 167 482 162C456 154 417 202 372 295C407 194 418 132 402 122C398 120 390 120 377 134C360 153 335 197 323 249C310 300 314 336 323 360C299 332 281 318 272 322C270 323 267 326 268 334C271 347 285 366 306 377C228.354 371.364 150.687 366.03 73 361V364C115.96 368.719 158.962 373.052 202 377C120 381 71 397 66 424C63 445 88 467 128 479C166 490 208 489 244 476C277 464 304 443 324 413C282 540 286 660 302 677L307 679L310 678C325 672 335 601 339 488C348 615 369 668 387 674C391 675 397 675 403 667C422 638 422 516 341 398L340 389C340.796 389 341.559 388.684 342.121 388.121C342.684 387.559 343 386.796 343 386C481 400 725 375 734 361V357Z" fill="#CDF567"/>
</svg>
