<svg width="800" height="800" viewBox="0 0 800 800" fill="none" xmlns="http://www.w3.org/2000/svg">
<g clip-path="url(#clip0_1_14)">
<path d="M1494 341C1216 341 1180 277 1176 257C1167 214 1230 158 1351 102C1352.72 101.204 1354.06 99.7565 1354.72 97.9749C1355.37 96.1933 1355.3 94.2239 1354.5 92.5C1353.7 90.7761 1352.26 89.4389 1350.47 88.7825C1348.69 88.1261 1346.72 88.2044 1345 89C1222 146 1131 151 1087 103C1035 45 1059 -87 1153 -249C1153.67 -250.569 1153.75 -252.329 1153.21 -253.95C1152.67 -255.57 1151.56 -256.939 1150.09 -257.798C1148.62 -258.658 1146.88 -258.95 1145.21 -258.619C1143.53 -258.288 1142.04 -257.356 1141 -256C1055 -107 930 -21 800 -21C670 -21 545 -107 459 -256C458.61 -256.912 458.03 -257.732 457.299 -258.403C456.569 -259.074 455.703 -259.583 454.761 -259.894C453.819 -260.206 452.821 -260.313 451.834 -260.21C450.847 -260.107 449.894 -259.795 449.037 -259.294C448.179 -258.794 447.438 -258.118 446.862 -257.31C446.287 -256.501 445.889 -255.58 445.697 -254.607C445.504 -253.633 445.521 -252.63 445.745 -251.663C445.97 -250.697 446.398 -249.789 447 -249C533 -100 545 51 480 164C415 277 279 341 106 341C104.011 341 102.103 341.79 100.697 343.197C99.2902 344.603 98.5 346.511 98.5 348.5C98.5 350.489 99.2902 352.397 100.697 353.803C102.103 355.21 104.011 356 106 356C294 356 421 402 447 479C468 543 420 623 311 705C310.189 705.505 309.49 706.171 308.947 706.957C308.403 707.742 308.026 708.631 307.839 709.568C307.651 710.505 307.658 711.47 307.857 712.404C308.057 713.338 308.446 714.222 309 715C311 718 316 718 319 716C426 636 505 606 536 633C550 646 586 706 447 946C446.398 946.789 445.97 947.696 445.745 948.663C445.521 949.63 445.504 950.633 445.697 951.607C445.889 952.58 446.287 953.501 446.862 954.31C447.438 955.118 448.179 955.795 449.037 956.295C449.894 956.795 450.847 957.107 451.834 957.21C452.821 957.313 453.819 957.206 454.761 956.894C455.703 956.583 456.569 956.074 457.299 955.403C458.03 954.732 458.61 953.912 459 953C545 804 670 718 800 718C930 718 1055 804 1141 953C1141.39 953.912 1141.97 954.732 1142.7 955.403C1143.43 956.074 1144.3 956.583 1145.24 956.894C1146.18 957.206 1147.18 957.313 1148.17 957.21C1149.15 957.107 1150.11 956.795 1150.96 956.295C1151.82 955.795 1152.56 955.118 1153.14 954.31C1153.71 953.501 1154.11 952.58 1154.3 951.607C1154.5 950.633 1154.48 949.63 1154.25 948.663C1154.03 947.696 1153.6 946.789 1153 946C1067 797 1055 646 1120 533C1185 420 1321 356 1494 356C1495.99 356 1497.9 355.21 1499.3 353.803C1500.71 352.397 1501.5 350.489 1501.5 348.5C1501.5 346.511 1500.71 344.603 1499.3 343.197C1497.9 341.79 1495.99 341 1494 341Z" fill="#FFE818"/>
</g>
<defs>
<clipPath id="clip0_1_14">
<rect width="800" height="800" fill="white"/>
</clipPath>
</defs>
</svg>
