<svg width="800" height="800" viewBox="0 0 800 800" fill="none" xmlns="http://www.w3.org/2000/svg">
<g clip-path="url(#clip0_1_16)">
<path d="M1267 470C1323 423 1074 393 995 410C1029 352 1044 60 970 120C980 -1.99999 776 -100 738 45C569 -27 617 233 638 306C561 252 245 176 369 281C234 341 205 762 393 816C367 910 613 686 649 659C630 774 896 1073 911 988C983 1126 1277 959 1205 835C1304 843 1108 643 1030 590C1113 586 1332 503 1267 470Z" fill="#FB7EA8"/>
</g>
<defs>
<clipPath id="clip0_1_16">
<rect width="800" height="800" fill="white"/>
</clipPath>
</defs>
</svg>
