<svg width="800" height="800" viewBox="0 0 800 800" fill="none" xmlns="http://www.w3.org/2000/svg">
<path d="M318 164C305.681 257.466 302.332 351.896 308 446L305 447C214 440 113 502 100 530C99 533 98 535 100 536C101 537 120 550 254 486C272.228 474.168 290.562 462.501 309 451L311 453C374 573 438 667 460 690C451 670 419 613 336 488C335.443 487.28 335.149 486.391 335.166 485.481C335.183 484.57 335.51 483.693 336.092 482.994C336.675 482.294 337.479 481.815 338.371 481.634C339.264 481.453 340.191 481.582 341 482C459 556 541 591 588 608C642 627 683 632 698 622C702 619 704 615 703 610L702 609C693 572 576 496 349 441C346 440 345 436 347 434C519 271 581 144 569 110C567 106 564 103 559 103C541 102 508 127 471 170C438 208 385 279 320 402C319.502 402.584 318.847 403.013 318.112 403.235C317.378 403.457 316.595 403.462 315.857 403.252C315.119 403.041 314.457 402.622 313.951 402.046C313.444 401.469 313.114 400.759 313 400C321 251 320 185 318 164ZM91 537C91 535 91 531 93 527C106 498 206 434 301 440C295 301 304 157 316 151H320C323 152 326 154 327 213C327 254 325 313 321 384C382 270 433 202 465 166C504 120 539 95 559 96C567 97 573 101 575 108C583 129 567 173 534 226C507 271 453 343 357 436C487 468 569 504 615 528C670 558 706 588 710 610C711 618 708 624 702 629C685 640 642 635 585 616C539 600 462 567 351 498C391 558 422 608 443 644C472 695 470 699 469 702L465 704C449 704 362 566 306 460C257.212 492.184 209.198 525.527 162 560C131 582 131 582 128 581L126 578L128 574C156.594 551.835 186.299 531.142 217 512C166 534 108 555 94 542L91 537Z" fill="#A4C9D8"/>
</svg>
