<svg width="800" height="800" viewBox="0 0 800 800" fill="none" xmlns="http://www.w3.org/2000/svg">
<g clip-path="url(#clip0_1_20)">
<path d="M146 789C157 766 370 721 616 691C492 682 387 656 361 609C354 597 354 583 362 572C384 543 466 520 631 536C411 457 275 321 256 233C250 203 258 178 279 164C320 135 402 149 515 199C397 116 398 102 399 95C399 90 402 86 407 84C439 71 691 207 893 357C800 231 782 98 806 33C817 0 838 -18 864 -19H866C902 -19 942 13 983 73C1218 493 1012 928 646 821C542 842 455 854 401 860C352 866 189 883 167 860C163 856 162 850 164 845C168 834 199 820 257 805C157 814 151 806 147 801C145 798 144 793 146 789Z" fill="#3E8EF1"/>
</g>
<defs>
<clipPath id="clip0_1_20">
<rect width="800" height="800" fill="white"/>
</clipPath>
</defs>
</svg>
