<svg width="364" height="375" viewBox="0 0 364 375" fill="none" xmlns="http://www.w3.org/2000/svg">
<path d="M262.5 154.6C262.2 153.2 261.5 151.9 260.5 150.9C257 147.4 249.8 147.5 239.1 151.1C298.1 118.7 336.1 106.7 342.1 110.4L342.2 110.7C341.5 116.2 316.9 132.7 262.5 154.7V154.6ZM187.5 181.7C242.5 147.3 255.3 150.2 258.2 153.2C258.9 153.9 259.3 154.8 259.5 155.9C239.5 163.9 215.5 172.6 187.5 181.7ZM232 169.8C241.8 166.2 251 162.6 259.5 159.2C259.2 161 258.5 163 257.6 165.2C250 166.2 241.4 167.7 232 169.8ZM298.4 176C302.1 185.3 287.7 201.6 267 211.5C246.8 221.2 229.4 222.4 215.3 218.5C230.1 207.8 245.3 191.5 254.3 177.7C256.2 174.7 258.1 171.3 259.7 168C263.1 167.6 266.4 167.4 269.5 167.3C285.7 166.6 295.9 169.7 298.4 176ZM186.1 204.2C192.4 211 199.9 216.2 208.1 219.5C203.304 222.691 197.941 224.932 192.3 226.1C191 219 189 211.6 186.1 204.1V204.2ZM184.5 226C176.9 223.1 174.4 211.4 177.2 192C183.2 203.2 186.9 215 188.8 226.6C187.2 226.6 185.8 226.4 184.5 226ZM157.3 322.3C155.1 320.9 150.2 314.9 152.7 289.3C155.311 268.786 159.592 248.518 165.5 228.7C167.1 228.7 169.8 228.9 173.5 212.7C174.6 221.4 178 226.7 183.7 228.9C185.5 229.6 187.4 229.9 189.5 229.9C195 268.9 180.7 306.2 167.3 318.9C165 321.1 160.7 324.4 157.3 322.3ZM98.6 352.2C94.7 346 107.6 299 158.8 216.4C159.5 220 160.3 223.1 161.4 225.4C130.7 313.1 106.2 351.6 99.1 352.4C98.8 352.4 98.7 352.4 98.6 352.2ZM141.8 235.5C127.354 257.222 112.485 278.66 97.2 299.8C106.2 286 121.2 263.8 141.8 235.5ZM39.3 264C39.3 260.2 42.3 255.5 47.5 250.2C52.5 245.2 59.5 239.9 68.2 234.4C96.2083 218.196 125.879 205.054 156.7 195.2C156.9 199.1 157.2 203.2 157.7 207.3C109.9 261.5 60.9 275.7 44.7 270.2C41.1 269 39.3 266.9 39.3 264ZM64.9 178C67.3 174 70.6 169.8 74.5 166C90.3 150 116.7 137.4 137.8 140.8C145.504 141.967 152.644 145.537 158.2 151C156.101 164.293 155.598 177.788 156.7 191.2C125.9 200.4 75.7 212.3 63.4 197.1C58.8 191.3 61.7 183.5 64.9 178ZM162.9 147C163.5 147.3 165.1 149.2 167.7 158.5C165.7 155.3 163.7 152.5 161.4 150.2C161.641 149 162.154 147.871 162.9 146.9V147ZM166.3 224.5L170.7 208.5C170.056 214.026 168.572 219.421 166.3 224.5ZM162.9 220.5C162.4 218.3 161.9 215.5 161.4 212.2L170.7 197.6C168.1 205.6 165.5 213.2 162.9 220.4V220.5ZM180.2 182.3C179.901 182.456 179.659 182.703 179.509 183.005C179.358 183.307 179.307 183.649 179.362 183.981C179.418 184.314 179.577 184.621 179.817 184.858C180.058 185.094 180.367 185.249 180.7 185.3C180.775 185.562 180.912 185.802 181.1 186C181.6 186.4 182.1 186.6 182.8 186.4C212.2 176.9 236.8 170.8 255.8 168.4C254.502 170.975 253.066 173.479 251.5 175.9C240.716 191.925 227.172 205.909 211.5 217.2C197.383 211.995 185.673 201.78 178.6 188.5C178.422 188.333 178.208 188.208 177.974 188.137C177.74 188.065 177.493 188.048 177.252 188.086C177.01 188.125 176.781 188.218 176.581 188.359C176.382 188.5 176.217 188.685 176.1 188.9L175.7 188.8C175.2 188.7 174.7 188.9 174.3 189.4L174.2 189.3C173.5 188.8 172.5 188.9 172 189.6C168.342 194.413 164.54 199.115 160.6 203.7L159.9 193.8L170.2 190.4C170.54 190.225 170.805 189.935 170.949 189.581C171.093 189.227 171.106 188.834 170.986 188.472C170.865 188.109 170.618 187.802 170.291 187.606C169.963 187.409 169.577 187.336 169.2 187.4C166.4 188.4 163.2 189.4 159.7 190.4V189.9C158.9 173.4 159.6 161.1 160.7 153.9C167.454 162.592 171.923 172.837 173.7 183.7C173.832 184.056 174.085 184.353 174.416 184.539C174.746 184.725 175.132 184.788 175.505 184.716C175.877 184.644 176.212 184.442 176.449 184.146C176.686 183.85 176.811 183.479 176.8 183.1C168.6 143 164.5 143.5 162.3 143.7C160.9 143.9 159.8 145.3 158.9 147.7C153.08 142.425 145.855 138.951 138.1 137.7C110.5 133.2 74.5 154.7 61.9 176.4C56.6 185.4 56.2 193.4 60.7 199C66.7 206.6 83.4 212.1 126.3 202.6C60.8 228.2 36.3 250.7 36.3 263.6C36.2 267.9 38.9 271.2 43.7 272.8C62.2 279.1 105.7 263.6 147.7 222.2C132.7 242.6 118.8 262.2 107.3 279C83.9 313.4 84.6 315.1 85.1 316C85.3 316.6 85.9 317 86.5 317C87.5 317.1 89 317.2 110 287.5C115.6 279.6 123.3 268.5 133.6 253.4C103.1 308.7 91.3 346 96 353.4C96.8 354.7 98 355.4 99.5 355.1C107.7 354.1 122.2 326.9 128 315.2C135 301.1 145 279.2 156.8 247.7C146.3 291 145.6 318.9 155.2 324.9C157.4 326.3 162.2 327.7 169.1 321.1C177.6 313.1 187.9 293.6 192 268.3C193.6 257.6 194.5 244.1 192.5 229.3C198.3 228.3 205 225.3 211.9 220.7C214.52 221.516 217.193 222.15 219.9 222.6C234.9 225 252.1 222.1 268.4 214.4C277.037 210.407 284.946 205 291.8 198.4C300.1 190.1 304 181.4 301.4 174.8C297.8 165.8 283.7 162.5 260.9 164.7C261.9 162.2 262.4 159.9 262.6 157.7C317.6 135.4 344.1 118.1 345 111C345.1 109.6 344.6 108.4 343.4 107.7C333.8 101.7 270.2 124.7 180.2 182.3Z" fill="#FF4935"/>
</svg>
