<svg width="800" height="800" viewBox="0 0 800 800" fill="none" xmlns="http://www.w3.org/2000/svg">
<path d="M294 423C313 423 326 428 334 438C350 459 345 500 311 583C352 512 377 485 398 487C410 489 421 499 430 520C429 500 433 487 442 481C460 470 498 486 574 540C516 487 497 457 504 439C509 428 525 422 557 422C524 413 510 404 508 392C506 375 532 355 599 325C523 347 498 344 489 332C482 321 487 301 508 270C476 300 455 310 438 304C420 297 409 269 404 212C399 285 391 303 380 305C372 307 363 300 348 270C353 295 350 310 340 319C322 334 284 327 206 291C291 344 322 375 318 398C317 408 309 416 293 423H294ZM245 724C243.939 724 242.921 723.579 242.171 722.828C241.421 722.078 241 721.061 241 720L242 719C313 571 352 474 328 443C317 429 293 427 250 437C249.398 437.156 248.769 437.169 248.161 437.039C247.553 436.909 246.984 436.639 246.499 436.251C246.014 435.863 245.626 435.367 245.365 434.803C245.105 434.238 244.98 433.621 245 433C245 431 247 430 248 429C289 420 309 410 311 397C315 364 217 302 56.9998 213C56.6156 212.352 56.4223 211.608 56.4423 210.855C56.4623 210.101 56.6947 209.369 57.1127 208.742C57.5307 208.115 58.1174 207.619 58.8051 207.311C59.4928 207.002 60.2536 206.895 60.9998 207C206 288 308 337 335 314C349 301 344 267 320 205C319.651 204.067 319.662 203.038 320.032 202.113C320.402 201.188 321.104 200.435 322 200C324 199 326 200 327 202C352 268 370 300 379 298C398 295 400 144 401 80C401 78 403 76 405 76C407 76 408 78 408 80C407 186 410 286 441 297C462 305 499 275 561 201C561.203 200.341 561.573 199.745 562.074 199.271C562.575 198.798 563.19 198.461 563.859 198.295C564.528 198.129 565.229 198.139 565.893 198.323C566.558 198.508 567.163 198.861 567.651 199.349C568.139 199.836 568.492 200.442 568.677 201.106C568.861 201.771 568.871 202.472 568.705 203.141C568.539 203.81 568.202 204.425 567.728 204.926C567.254 205.427 566.659 205.797 566 206C530 250 483 310 496 328C512 350 628 311 740 269C740.525 268.851 741.076 268.811 741.618 268.883C742.159 268.955 742.68 269.137 743.149 269.418C743.617 269.699 744.023 270.074 744.341 270.518C744.66 270.962 744.884 271.466 745 272L743 276C629 318 513 365 516 391C518 410 587 422 638 429C638.88 429.227 639.656 429.746 640.202 430.474C640.747 431.201 641.028 432.092 641 433C641 435 639 437 637 437C587 430 520 423 511 442C499 470 598 555 706 643C706.155 643.602 706.169 644.231 706.039 644.839C705.909 645.447 705.639 646.016 705.251 646.501C704.863 646.986 704.367 647.374 703.802 647.634C703.238 647.895 702.621 648.02 702 648C567 540 472 471 446 488C434 496 434 523 447 574C447 576 446 578 444 578C442 579 440 577 440 575C427 522 413 497 398 495C366 492 315 583 248 722L245 724Z" fill="#FB7EA8"/>
</svg>
