<svg width="240" height="242" viewBox="0 0 240 242" fill="none" xmlns="http://www.w3.org/2000/svg">
<g clip-path="url(#clip0_1_6)">
<path d="M5.75103 110.094C17.4875 116.222 62.1485 131.906 117.715 144.058C118.13 144.058 118.546 144.369 118.754 144.785C118.961 145.2 118.961 145.615 118.754 146.135C105.875 182.071 120.104 229.536 129.971 237.742C131.009 238.573 131.736 238.78 132.256 238.573C133.191 238.053 140.253 231.821 128.932 170.75C126.128 162.649 123.22 154.132 120.623 146.031C120.542 145.827 120.505 145.609 120.515 145.39C120.524 145.171 120.58 144.956 120.678 144.76C120.776 144.564 120.914 144.391 121.084 144.252C121.253 144.113 121.45 144.011 121.662 143.954C177.332 131.49 221.889 115.911 233.833 109.679C224.797 111.133 198.001 117.988 138.488 137.722C138.154 137.826 137.795 137.815 137.469 137.691C137.142 137.566 136.867 137.336 136.687 137.036C136.508 136.737 136.434 136.385 136.478 136.039C136.522 135.692 136.681 135.371 136.93 135.125C179.513 95.4498 202.571 66.3682 214.411 48.9193C227.809 29.1854 234.353 13.0867 231.86 6.02404C231.237 4.05065 229.887 3.11589 227.706 2.90816H227.082C211.399 2.90816 167.673 41.7528 120.935 127.543C120.415 128.582 118.754 128.582 118.234 127.543C70.6652 40.4026 26.3158 1.76568 11.2558 3.01203C9.1785 3.11589 7.93215 4.15452 7.20511 6.12791C4.81627 13.0867 11.4635 29.0816 24.7579 48.8155C36.3905 66.4721 59.5519 95.5537 102.136 135.125C102.384 135.371 102.543 135.692 102.587 136.039C102.631 136.385 102.557 136.737 102.378 137.036C102.198 137.336 101.923 137.566 101.596 137.691C101.27 137.815 100.911 137.826 100.578 137.722C41.3759 118.196 14.6832 111.445 5.75103 110.094ZM131.944 242C130.906 242 129.555 241.585 128.101 240.338C117.611 231.718 102.759 184.46 115.43 146.862C58.6171 134.398 1.49266 114.976 0.0385854 109.471C-0.16914 108.848 0.0385854 108.225 0.557899 107.706C1.3888 106.875 2.73902 105.628 26.5236 111.86C43.1416 116.326 66.6145 123.597 95.0729 132.84C55.3974 95.4498 33.5862 67.8223 22.2652 50.9966C8.13987 30.0163 1.59653 13.3983 4.50468 5.19314C4.94089 3.72755 5.8281 2.4368 7.04013 1.50447C8.25216 0.572138 9.7273 0.0456953 11.2558 1.02422e-05C20.3957 -0.830891 36.3905 10.1786 54.3588 29.2893C69.315 45.2841 92.7879 74.6773 119.792 123.804C146.797 74.6773 170.166 45.2841 185.226 29.2893C203.09 10.2824 219.189 -0.727028 228.329 1.02422e-05C229.857 0.0456953 231.332 0.572138 232.544 1.50447C233.756 2.4368 234.644 3.72755 235.08 5.19314C237.884 13.3983 231.341 30.1202 217.215 50.8927C205.791 67.8223 183.979 95.4498 144.512 132.736C172.866 123.389 196.547 116.118 213.165 111.652C237.053 105.109 238.507 106.459 239.338 107.29C239.857 107.809 240.065 108.433 239.857 109.16C238.092 115.391 172.762 135.956 124.258 146.966C126.336 153.509 128.724 160.468 131.113 167.427C131.425 167.53 131.633 167.842 131.736 168.154C137.575 184.128 143.357 200.123 149.081 216.138C154.275 230.991 154.275 230.991 153.651 231.718C153.34 232.237 152.717 232.445 152.197 232.341C151.782 232.237 151.574 232.133 150.951 230.991C145.642 216.908 140.449 202.782 135.372 188.615C138.799 211.672 140.98 237.43 134.125 241.481C133.49 241.832 132.774 242.011 132.048 242H131.944Z" fill="#3E8EF1"/>
</g>
<defs>
<clipPath id="clip0_1_6">
<rect width="240" height="242" fill="white"/>
</clipPath>
</defs>
</svg>
