<svg width="800" height="800" viewBox="0 0 800 800" fill="none" xmlns="http://www.w3.org/2000/svg">
<path d="M588 485C590 483 591 480 591 476C591 465 579 454 557 443C701 485 780 526 783 541V542C774 550 709 537 588 485ZM426 410C568 442 583 467 583 476C583 479 583 481 581 483C537 464 485 440 426 410ZM516 461L576 488L563 495C550 484 534 473 516 461ZM611 576C602 596 554 599 505 582C458 566 429 540 412 512C462.156 518.995 513.216 515.591 562 502L579 516C606 541 617 562 611 576ZM389 443C388 464 392 484 399 502C384 498 372 493 364 487C373 474 382 459 389 443ZM352 475C344 458 359 436 394 410C386 437 373 461 358 483L352 475ZM157 584C155 578 157 561 202 525C238.213 496.595 276.672 471.178 317 449C320 452 324 456 355 437C344 452 340 466 346 478C348 482 350 486 354 489C301 559 219 596 178 595C171 594 159 593 157 584ZM17 539C20 523 115 469 326 419L316 437C129 528 30 550 17 540V539ZM62 306C68 300 80 297 97 297C113 297 132 299 155 305C208 317 277 344 356 382L339 403C178 413 78 358 61 324C57 316 58 310 62 306ZM238 211C249 208 260 207 273 207C323 207 385 228 412 267C423 281 428 298 429 315C404.652 332.636 382.496 353.114 363 376C299 342 201 282 206 238C208 222 225 214 238 211ZM442 316C443 318 442 323 432 342L435 319L442 316ZM326 432L337 417L375 409L326 432ZM414 399C413.254 398.895 412.493 399.002 411.805 399.311C411.118 399.619 410.531 400.115 410.113 400.742C409.695 401.369 409.463 402.101 409.443 402.855C409.423 403.608 409.616 404.352 410 405C409.559 405.82 409.418 406.767 409.6 407.68C409.783 408.593 410.278 409.413 411 410C473 441 521 470 555 497L537 502C494.46 510.321 450.778 510.998 408 504C394.214 473.486 392.079 438.98 402 407C402.02 406.379 401.895 405.762 401.634 405.197C401.374 404.633 400.986 404.137 400.501 403.749C400.016 403.361 399.447 403.091 398.839 402.961C398.231 402.831 397.602 402.844 397 403C396 401 395 401 393 401C393 399 391 398 389 398L349 402L364 385L385 396C385.345 396.582 385.832 397.067 386.415 397.41C386.998 397.752 387.659 397.941 388.335 397.959C389.011 397.977 389.681 397.823 390.282 397.512C390.882 397.201 391.394 396.742 391.769 396.18C392.145 395.617 392.371 394.968 392.427 394.294C392.484 393.62 392.368 392.942 392.091 392.325C391.815 391.708 391.386 391.171 390.845 390.764C390.305 390.357 389.67 390.095 389 390L369 380V379C394 352 415 333 428 324C425.039 348.928 415.744 372.683 401 393C401.202 393.576 401.533 394.098 401.968 394.527C402.403 394.955 402.931 395.278 403.51 395.471C404.089 395.664 404.704 395.722 405.309 395.64C405.914 395.559 406.493 395.34 407 395C458 319 450 313 447 310C444 308 440 309 435 311C434 291 426 275 418 262C381 212 290 189 236 203C214 209 200 221 199 237C196 259 214 294 297 346C153 283 78 280 58 300C51 307 50 316 55 327C74 366 168 410 299 411C243 420 191 428 146 437C54 454 53 458 52 460L53 464C54 466 56 468 137 455L228 438C92 477 15 517 10 537C9 540 11 543 13 545C28 556 94 536 121 527C155 516 205 497 274 466C189 518 143 560 149 585C150 591 156 600 177 601C203 602 250 587 297 554C316 540 339 520 359 493C370 501 385 506 403 510L413 526C433 553 465 576 502 589C525 597 546 601 565 601C591 601 611 593 617 579C626 559 609 532 569 499C575 497 579 494 583 491C705 542 774 557 787 547C789 545 790 542 790 539C784 514 647 450 414 399Z" fill="#FF4935"/>
</svg>
