<svg width="800" height="800" viewBox="0 0 800 800" fill="none" xmlns="http://www.w3.org/2000/svg">
<g clip-path="url(#clip0_1_18)">
<path d="M951 59C902 -9 412 -413 399 -10C398 30 422 121 633 210C384 155 260 174 230 212C219 225 218 241 227 258C258 315 415 384 669 386C569 402 497 420 450 434C363 460 309 488 300 511C298 518 299 525 305 530C329 555 445 549 633 501C428 585 304 664 299 701C298 707 301 713 306 717C332 734 446 703 643 605C528 684 466 746 470 780C471 790 478 797 489 801C542 817 719 746 890 585C1060 425 1135 353 951 59Z" fill="#A4C9D8"/>
</g>
<defs>
<clipPath id="clip0_1_18">
<rect width="800" height="800" fill="white"/>
</clipPath>
</defs>
</svg>
