<svg width="800" height="800" viewBox="0 0 800 800" fill="none" xmlns="http://www.w3.org/2000/svg">
<path d="M133 375C218.21 410.372 306.614 437.496 397 456L398 459C367 544 401 655 424 674C426 676 428 677 429 676C431 675 448 660 421 517C414.485 496.724 408.152 476.389 402 456L404 454C535 425 639 388 667 374C645 377 583 393 444 440C443.254 440.105 442.493 439.998 441.805 439.689C441.118 439.381 440.531 438.885 440.113 438.258C439.695 437.631 439.463 436.899 439.443 436.145C439.423 435.392 439.616 434.648 440 434C540 341 594 273 621 232C653 185 668 148 662 131C661 127 657 124 653 124H651C614 124 512 215 403 416C401 418 398 418 396 416C285 212 181 121 146 124C142 124 138 127 137 131C131 148 146 185 178 232C205 273 259 341 359 434C359.384 434.648 359.577 435.392 359.557 436.145C359.537 436.899 359.305 437.631 358.887 438.258C358.469 438.885 357.882 439.381 357.195 439.689C356.507 439.998 355.746 440.105 355 440C217 394 154 378 133 375ZM429 684C426 684 423 683 420 680C395 660 361 549 390 461C257 432 124 386 120 374L121 369C123 367 127 364 182 379C221 390 276 406 342 428C250 341 199 276 172 236C139 187 124 148 130 129C133 122 138 118 146 117C168 115 205 141 247 186C282 223 337 292 400 407C463 292 518 223 553 186C595 141 632 115 654 117C662 118 667 122 670 129C676 148 661 187 628 236C601 276 550 341 458 428C524 406 580 389 618 379C674 363 678 366 680 368L681 373C677 388 524 435 410 461C428.379 515.46 448.051 569.476 469 623C481 658 481 658 479 660C478 661 477 662 476 661C475 661 474 661 473 658C459.005 625.645 446.656 592.603 436 559C444 613 450 673 433 683L429 684Z" fill="#CDF567"/>
</svg>
