<svg xmlns:xlink="http://www.w3.org/1999/xlink" xmlns="http://www.w3.org/2000/svg" viewBox="0 0 1127 460" fill="currentColor" width="1127"  height="460" ><path d="M1953 795c-9-21-197-60-413-86 109-8 201-31 224-72 7-12 6-23-1-33-19-26-91-46-236-32 193-69 313-189 329-266 6-27-1-48-20-61-36-25-108-13-207 31 104-73 102-85 102-92-1-4-3-7-7-9-29-12-250 108-428 239 82-110 98-227 77-284-10-29-28-45-51-45h-2c-31 0-67 28-103 80 33-89 29-94 26-98-3-3-6-4-10-4-4 1-15 3-72 130-25 55-49 114-70 171 3-149-80-300-143-347-29-23-49-19-60-11-26 17-30 70-23 133C821 35 775 12 747 10c-33-3-64 21-83 64-35 80-29 205 39 315-71-63-130-113-165-142-118-98-124-96-130-95-3 1-5 4-6 7-1 5-2 10 83 85-75-44-132-61-164-46-15 7-23 22-23 41 2 54 76 155 227 243-156-46-272-51-302-24-7 6-10 15-7 23 8 29 75 61 182 90-212-14-364 18-393 57-6 9-7 18-2 27 14 26 79 43 184 50-75 8-78 14-80 18-1 3-1 7 1 10 11 15 150 15 233 14 93-2 185-6 266-13-79 28-145 69-158 117-4 17 0 32 13 42 11 9 50 28 155-10-127 94-191 198-187 247 1 14 9 25 21 29 31 12 88-18 164-82-36 53-48 93-35 118 10 19 33 28 67 23 91-13 233-110 293-245 8 154 123 315 215 367 20 12 36 16 49 16s22-5 28-10c22-20 23-66 4-136 35 57 66 85 91 82 13-1 31-11 40-51 20-93-21-305-123-419 138 62 285 79 315 58 6-4 9-10 8-16-2-12-20-26-54-42 92 19 169 30 216 35 43 5 186 20 206 0 3-4 4-9 2-13-3-10-30-22-82-36 89 8 94 1 97-3 2-3 3-7 1-10z" fill="#FB7EA8"></path></svg>