<svg xmlns:xlink="http://www.w3.org/1999/xlink" xmlns="http://www.w3.org/2000/svg" fill="currentColor" viewBox="0 0 1226 480" width="1349"  height="552" ><path d="M1693 1062c276 99 430 90 481 42 22-21 27-49 15-79-36-91-231-213-567-250 161-11 253-37 267-76 4-11 3-29-20-47-81-64-360-102-576-17 59-52 109-115 145-185 43-80 63-164 52-212-7-32-25-39-36-40-44-6-112 63-190 194 66-220-26-319-61-348-72-59-178-59-251 0-37 29-137 136-55 377a599 599 0 00-219-190c-96-48-205-63-297-43-98 21-160 78-162 148-2 49 27 161 287 271-306-68-458-45-495 2-13 16-14 36-4 56 39 71 231 155 543 158-123 20-211 41-269 59-106 31-173 66-183 94-4 9-2 17 5 24 29 30 172 23 404-37-252 104-405 201-411 246-1 8 2 15 9 20 32 21 171-17 414-137-141 96-218 172-214 214 2 12 10 22 24 26 65 20 283-68 492-265-106 161-127 289-94 349 14 24 36 36 62 32 86-12 164-159 213-325 4 76 29 145 77 207 74 96 182 149 259 176 79 28 159 41 229 41 109 0 196-32 226-92 45-90-44-204-156-302 284 177 545 315 591 290 5-3 8-9 8-15-2-46-204-189-543-366z" fill="#3E8EF1"></path></svg>