<svg xmlns:xlink="http://www.w3.org/1999/xlink" xmlns="http://www.w3.org/2000/svg" viewBox="0 0 24 24" width="24" height="24" class=""><g fill="#171313" stroke="#171313" stroke-width="0.2px"><path d="M17.4491 6.70996h.17v2.29l4.76-2.75-4.76-2.79v2.25h-.16a6.50007 6.50007 0 00-4.95 2.29L5.79914 15.84a5.50032 5.50032 0 01-4.18 1.93v1a6.491 6.491 0 002.72046-.5974A6.48927 6.48927 0 006.55914 16.49l6.70996-7.85004a5.49034 5.49034 0 011.8779-1.42435 5.49043 5.49043 0 012.3021-.50565h0zM22.3798 17.7902l-4.76-2.79v2.25h-.17a5.48862 5.48862 0 01-2.302-.5057 5.48975 5.48975 0 01-1.878-1.4243l-1.27-1.39-.66.77 1.17 1.3a6.49996 6.49996 0 002.22 1.6817 6.50077 6.50077 0 002.72.5983h.17v2.25l4.76-2.74zM5.79914 8.15998l1.63 1.91.66-.77-1.53-1.79a6.49006 6.49006 0 00-4.94-2.28v1a5.50001 5.50001 0 014.18 1.93z" stroke="#171313" fill="#171313" stroke-width="0.2px"></path></g></svg>